<?xml version="1.0"?>
<svg width="640" height="480" xmlns="http://www.w3.org/2000/svg" xmlns:svg="http://www.w3.org/2000/svg">
 <!-- Created with SVG-edit - https://github.com/SVG-Edit/svgedit-->
 <g class="layer">
  <title>Layer 1</title>
  <path d="m18.5,66.5c2.058666,-1.770668 2.726591,-2.275856 3.104166,-2.541668c0.817814,-0.575741 1.256807,-0.883797 2.739,-1.758499c0.524117,-0.309303 1.074406,-0.606667 1.6395,-0.9105c1.172071,-0.630184 1.784157,-0.945259 2.405334,-1.274666c1.280022,-0.678783 1.934076,-1.03603 2.601334,-1.400002c0.68141,-0.371693 1.377499,-0.75285 2.093998,-1.135498c0.734146,-0.392075 1.489246,-0.790478 2.274002,-1.1805c1.635658,-0.81292 2.505589,-1.203121 3.401333,-1.600002c0.919891,-0.407578 1.869705,-0.811623 2.845501,-1.219498c0.998856,-0.417515 2.023533,-0.836662 3.070499,-1.2645c2.15839,-0.882011 3.270626,-1.336697 4.413334,-1.806667c1.184963,-0.48735 2.42252,-0.997681 3.724499,-1.533001c1.376682,-0.566036 2.839119,-1.166679 4.399502,-1.803001c3.453453,-1.408314 5.364754,-2.179924 7.380001,-2.990665c2.092072,-0.841648 4.236473,-1.699497 6.407997,-2.560501c2.169815,-0.860325 4.313194,-1.705837 6.407997,-2.515499c3.921364,-1.515648 5.710808,-2.180485 7.381332,-2.793331c1.561584,-0.572884 3.031143,-1.098446 4.419006,-1.587002c1.316177,-0.463322 2.57608,-0.897747 3.788994,-1.317001c2.336174,-0.807518 3.481354,-1.207787 4.618668,-1.606665c1.131348,-0.396788 2.257896,-0.792902 3.384003,-1.1805c1.124573,-0.387068 2.250366,-0.770763 3.384003,-1.1355c2.278114,-0.732958 3.437317,-1.068872 4.610664,-1.402668c1.19265,-0.339287 2.415314,-0.670576 3.671997,-1.0035c1.295303,-0.343157 2.637917,-0.689312 4.032005,-1.0485c2.967827,-0.764666 4.550583,-1.172361 6.186661,-1.598665c1.674599,-0.43634 3.370995,-0.881426 5.073006,-1.332001c1.69265,-0.448099 3.359413,-0.891909 4.982994,-1.332001c3.060089,-0.829472 4.465302,-1.223202 5.78801,-1.595999c1.247589,-0.351627 2.42543,-0.688957 3.541489,-1.009501c1.061279,-0.30481 2.073792,-0.598234 3.046509,-0.8745c1.848312,-0.52495 2.739288,-0.768497 3.613327,-1.002666c0.858978,-0.230131 1.707565,-0.45109 2.548508,-0.664499c0.835052,-0.211912 1.668503,-0.41836 2.503494,-0.6195c1.683029,-0.40542 2.5383,-0.602763 3.401337,-0.8c0.868301,-0.198441 1.740814,-0.393059 2.615997,-0.580501c0.874161,-0.187222 1.746323,-0.368803 2.615997,-0.5355c1.715424,-0.328809 2.561829,-0.466978 3.397339,-0.6c0.824509,-0.13127 1.639755,-0.251106 2.444992,-0.3645c0.794754,-0.111917 1.579971,-0.216584 2.355011,-0.3195c1.519928,-0.201826 2.266602,-0.302901 3.014664,-0.4c0.759598,-0.098596 1.54216,-0.195333 2.359497,-0.2805c0.861328,-0.089753 1.779022,-0.173163 2.764496,-0.235499c2.213425,-0.14001 3.461548,-0.168479 4.790665,-0.200001c1.392899,-0.033034 2.83197,-0.051867 4.299011,-0.0645c1.476974,-0.012718 2.945999,-0.017565 4.388992,-0.0195c2.736008,-0.003669 3.99733,-0.002256 5.186676,0c1.12532,0.002135 2.194687,0.006524 3.215988,0.0195c0.981369,0.012468 1.930908,0.029645 2.856003,0.0645c1.811203,0.068241 2.710007,0.131705 3.602676,0.200001c0.881348,0.067429 1.744415,0.146548 2.582993,0.235499c0.809433,0.08586 1.582932,0.17688 2.313004,0.2805c1.313782,0.186468 1.883865,0.294924 2.401337,0.397333c0.472809,0.09357 0.90538,0.190364 1.306488,0.2805c0.376236,0.084549 0.733185,0.169501 1.081512,0.235499c0.687241,0.130215 1.043915,0.166516 1.40799,0.202667c0.371613,0.0369 0.750885,0.065782 1.135498,0.103499c0.39006,0.038252 0.785416,0.078368 1.180511,0.1485c0.80278,0.142499 1.20076,0.267523 1.599991,0.4c0.405228,0.134463 0.809845,0.290696 1.219498,0.4515c0.415695,0.163179 0.834335,0.336271 1.264511,0.4965c0.87738,0.3268 1.335312,0.464398 1.799988,0.6c0.470978,0.137443 0.951126,0.266352 1.435501,0.403501c0.490311,0.138832 0.986862,0.279373 1.480499,0.4485c1.005554,0.344521 1.500961,0.567633 1.996002,0.798666c0.496368,0.231647 0.982422,0.480591 1.460999,0.732c0.470749,0.247293 0.925873,0.497421 1.371002,0.732c0.834625,0.439846 1.22673,0.628071 1.602676,0.799999c0.361465,0.165306 0.717331,0.317333 1.067993,0.468c0.350662,0.150667 0.707291,0.301044 1.067993,0.468c0.769608,0.35623 1.177521,0.571774 1.606674,0.806665c0.455353,0.249231 0.931427,0.525869 1.429504,0.8295c0.527405,0.321512 1.079453,0.671602 1.654495,1.054501c1.248199,0.831118 1.90744,1.302723 2.593338,1.796c0.708176,0.509304 1.426392,1.039499 2.147995,1.587c0.726425,0.551155 1.446762,1.108734 2.147995,1.677c1.361359,1.103228 1.991699,1.655111 2.594666,2.197334c0.585617,0.526619 1.143692,1.053593 1.674011,1.584c0.520309,0.520405 1.020767,1.045444 1.493988,1.584c0.93895,1.068581 1.373245,1.633717 1.804001,2.203999c0.433624,0.574078 0.854462,1.16584 1.264496,1.774502c0.415436,0.616673 0.823212,1.25214 1.219513,1.9095c0.815582,1.352848 1.203064,2.070053 1.604004,2.797333c0.407776,0.739708 0.815918,1.493523 1.238983,2.251499c0.427551,0.766048 0.861938,1.537514 1.32901,2.296501c0.941193,1.529423 1.467529,2.266006 2.002655,3.006668c0.54483,0.754108 1.120789,1.51408 1.710022,2.300999c0.610779,0.815731 1.249573,1.663815 1.889984,2.570999c1.380859,1.95612 2.077301,3.048538 2.79068,4.195999c0.736572,1.184765 1.463531,2.412289 2.173492,3.670502c0.712769,1.263165 1.402466,2.531815 2.038513,3.805496c1.223145,2.449379 1.726349,3.641441 2.198639,4.786667c0.453369,1.099358 0.859161,2.168167 1.242004,3.199501c0.369019,0.994057 0.70993,1.959373 1.062012,2.884506c0.672577,1.767273 1.035675,2.600418 1.406677,3.407997c0.364807,0.794098 0.74765,1.568176 1.135498,2.332497c0.386841,0.762352 0.786194,1.520363 1.180481,2.287506c0.803864,1.564018 1.202026,2.374474 1.597351,3.20266c0.400391,0.838806 0.79364,1.690651 1.180481,2.551506c0.387878,0.863152 0.767639,1.729301 1.135498,2.596497c0.726532,1.7127 1.066528,2.563217 1.409332,3.418671c0.351929,0.878204 0.714539,1.798721 1.101013,2.776497c0.416168,1.052895 0.868378,2.198593 1.371002,3.4515c1.165344,2.904808 1.851929,4.578133 2.593323,6.381332c0.782227,1.902504 1.597443,3.871178 2.431519,5.875504c0.836609,2.010345 1.665649,3.994522 2.476501,5.920494c1.498901,3.560249 2.171387,5.137627 2.793335,6.581329c0.572906,1.32988 1.110687,2.56044 1.625977,3.706512c0.48761,1.084518 0.964142,2.120773 1.446014,3.12149c0.957733,1.988953 1.477112,2.993576 2.006653,4.017334c0.537415,1.03894 1.090088,2.08371 1.65152,3.132004c0.562561,1.050369 1.129669,2.095383 1.696503,3.132004c1.113403,2.036102 1.659332,3.025757 2.198639,3.994659c0.529388,0.95108 1.054291,1.882553 1.584015,2.790009c0.521027,0.892532 1.042175,1.766647 1.584015,2.610001c1.062225,1.653305 1.632965,2.43573 2.207977,3.214661c0.582306,0.788834 1.196442,1.583344 1.833008,2.404495c0.664764,0.857544 1.370361,1.755829 2.102997,2.719498c1.616486,2.126251 2.482422,3.324036 3.390656,4.59201c0.944244,1.318268 1.900177,2.679352 2.860504,4.063492c0.96106,1.385193 1.903931,2.759918 2.815521,4.108505c1.712067,2.532791 2.477905,3.697739 3.194641,4.787994c0.673492,1.024475 1.304962,1.994934 1.906525,2.916c0.575775,0.881577 1.130524,1.7332 1.681488,2.556c1.081879,1.615677 1.642487,2.411926 2.206665,3.212006c0.567139,0.804245 1.142517,1.60849 1.716003,2.419495c0.575867,0.814331 1.153625,1.63205 1.716003,2.464508c1.130066,1.672806 1.666748,2.533386 2.198669,3.398666c0.53241,0.866074 1.051178,1.740234 1.564484,2.615997c0.512024,0.873581 1.015106,1.748062 1.519501,2.615997c0.998871,1.718781 1.498749,2.565948 2.010681,3.408005c0.518372,0.852646 1.060028,1.718094 1.636505,2.600998c0.600677,0.919952 1.245697,1.87674 1.951477,2.871002c1.550476,2.184189 2.447571,3.356522 3.391998,4.589325c0.979065,1.278015 1.99472,2.573837 3.031525,3.873001c1.033875,1.295502 2.061005,2.564178 3.076477,3.783005c1.890381,2.268982 2.768982,3.269333 3.590668,4.190674c0.764648,0.857407 1.492584,1.647217 2.187012,2.380493c0.657776,0.694565 1.296143,1.348846 1.916992,1.975494c1.204376,1.215607 1.807373,1.813004 2.410675,2.412003c0.605347,0.600998 1.216278,1.202484 1.838989,1.800003c0.62793,0.602524 1.26712,1.206116 1.929016,1.800003c1.351471,1.212601 2.069397,1.803391 2.798676,2.399994c0.737671,0.603455 1.491028,1.201202 2.251495,1.800003c0.76355,0.601212 1.53241,1.198166 2.296478,1.800003c1.51889,1.196381 2.263855,1.799362 3.008026,2.40799c0.754822,0.61734 1.524231,1.255737 2.320496,1.917007c0.831726,0.690704 1.705719,1.41954 2.635498,2.186996c2.049194,1.691422 3.188354,2.616806 4.389313,3.590668c1.245361,1.009857 2.521088,2.038956 3.808502,3.076492c1.281921,1.033112 2.542877,2.047028 3.763519,3.031525c2.258301,1.821442 3.264496,2.63797 4.189331,3.391998c0.854126,0.696381 1.644501,1.344666 2.380493,1.951477c0.691986,0.570557 1.34729,1.113983 1.975494,1.636505c1.212616,1.008636 1.812012,1.509338 2.412018,2.009338c0.599976,0.5 1.199982,1 1.799988,1.5c0.600006,0.5 1.200012,1 1.799988,1.5c1.200012,1 1.79953,1.500427 2.400024,1.998657c0.599518,0.497437 1.198761,0.992157 1.799988,1.480499c0.598785,0.486328 1.19696,0.96759 1.799988,1.435516c1.194,0.926453 1.798828,1.369537 2.417358,1.807983c0.637726,0.452057 1.317688,0.91095 2.053497,1.3815c0.793274,0.507294 1.667877,1.041931 2.638489,1.606506c2.247131,1.307037 3.566528,2.020966 4.986664,2.793335c1.500092,0.815857 3.063721,1.651093 4.666504,2.496002c1.614532,0.851105 3.221649,1.689209 4.801514,2.496002c2.964325,1.513824 4.319794,2.179108 5.587982,2.794678c1.192596,0.578888 2.329498,1.117157 3.423004,1.625977c1.061218,0.493774 2.108429,0.971222 3.153015,1.446014c2.138123,0.971802 3.257507,1.480316 4.410645,2.005341c1.180847,0.537628 2.383179,1.084503 3.602997,1.631989c1.228149,0.551208 2.459503,1.100403 3.693024,1.631989c2.427124,1.04599 3.620911,1.527405 4.790649,1.998688c1.145966,0.4617 2.271545,0.905762 3.370514,1.34848c1.075714,0.43335 2.128479,0.857849 3.145477,1.303497c1.968262,0.862488 2.900238,1.335022 3.830688,1.812012c0.953644,0.488861 1.942627,1.018616 3.002991,1.571991c1.147522,0.598846 2.405884,1.250488 3.812988,1.932007c3.297943,1.597351 5.258759,2.457031 7.386688,3.393341c2.264587,0.996429 4.642273,2.01825 7.09198,3.070496c2.488953,1.069092 4.987518,2.133728 7.451996,3.205505c4.720154,2.052734 6.904846,3.0401 8.97467,3.990662c1.975098,0.907043 3.861206,1.7948 5.67749,2.65799c1.763672,0.838196 3.483765,1.667969 5.182495,2.477997c3.377502,1.610565 5.088684,2.406952 6.814697,3.206665c1.736633,0.804626 3.483643,1.6073 5.231995,2.419525c1.750305,0.81311 3.499023,1.627289 5.231995,2.464478c3.443359,1.663452 5.127991,2.529938 6.796021,3.398682c1.656311,0.86264 3.291016,1.738159 4.909485,2.615997c1.606873,0.871521 3.196289,1.747498 4.774475,2.615997c3.121155,1.717621 4.666626,2.567322 6.221375,3.403992c1.570251,0.845032 3.176331,1.693787 4.837463,2.542511c1.718811,0.878204 3.518616,1.775055 5.422546,2.67749c4.126282,1.955811 6.401184,2.953156 8.779968,3.989349c2.451172,1.067749 4.956299,2.127625 7.484985,3.166504c2.511353,1.031769 4.983032,2.025726 7.39502,2.941498c4.467407,1.696198 6.49823,2.382263 8.380005,2.996002c1.743652,0.568695 3.377869,1.060791 4.912476,1.5c1.445496,0.413696 2.825562,0.781311 4.147522,1.139984c2.541016,0.689453 3.785767,1.044067 5.017334,1.409332c1.219788,0.361786 2.421509,0.731445 3.606018,1.096497c1.164856,0.358978 2.305847,0.715942 3.425964,1.051514c2.154541,0.645477 3.19165,0.930908 4.201355,1.198669c0.983337,0.260773 1.947266,0.501709 2.893494,0.729004c0.929749,0.223328 1.848633,0.434235 2.758484,0.638977c1.803284,0.405823 2.704346,0.604309 3.609375,0.801361c0.912292,0.198608 1.836426,0.394897 2.777954,0.580475c0.959839,0.189178 1.943787,0.373444 2.958008,0.535522c2.122192,0.339142 3.243164,0.469757 4.393372,0.598663c1.170776,0.131226 2.35553,0.244751 3.544495,0.345001c1.183105,0.099762 2.3526,0.186035 3.499451,0.255005c2.187378,0.131531 3.212891,0.168396 4.188049,0.201324c0.924866,0.031219 1.799927,0.051483 2.625,0.064484c0.774963,0.012207 1.5,0.017548 2.174988,0.019501c1.200012,0.003479 1.72699,0.001343 2.216003,0.001343c0.463013,0 0.911987,0 1.359009,0l0.45697,0l0.479004,0l0.513,0" fill="none" id="svg_3" stroke="#184ae0" stroke-width="5"/>
 </g>
</svg>